<svg width="1677" height="397" viewBox="0 0 1677 397" fill="none" xmlns="http://www.w3.org/2000/svg">
<path d="M0 17.9233L57.6023 9.85779V326.203H0V17.9233Z" fill="#941F1A"/>
<path d="M248.738 266.16L252.756 295.286C248.291 300.961 242.337 306.637 234.895 312.313C227.453 317.69 218.82 322.17 208.997 325.755C199.173 329.041 188.159 330.684 175.953 330.684C152.139 330.684 133.384 325.008 119.691 313.657C105.997 302.007 99.1504 285.726 99.1504 264.816C99.1504 250.179 103.318 237.483 111.653 226.729C120.286 215.975 131.896 207.611 146.483 201.637C161.069 195.662 177.591 192.675 196.047 192.675C209.145 192.675 220.309 193.87 229.537 196.26C238.765 198.649 245.612 201.039 250.077 203.429L252.31 238.379C247.547 236.288 241.147 234.645 233.109 233.45C225.072 231.957 217.034 231.21 208.997 231.21C191.135 231.21 177.144 233.898 167.023 239.275C157.199 244.652 152.287 252.12 152.287 261.679C152.287 270.641 155.562 277.064 162.111 280.947C168.66 284.83 176.847 286.772 186.67 286.772C198.28 286.772 209.592 284.83 220.606 280.947C231.918 276.765 241.296 271.836 248.738 266.16ZM245.166 189.09C245.166 177.739 242.784 168.628 238.021 161.757C233.556 154.887 227.453 149.809 219.713 146.523C211.973 143.237 203.192 141.594 193.368 141.594C175.805 141.594 158.837 145.328 142.464 152.796C126.389 159.965 113.291 168.628 103.169 178.784V119.638C108.528 114.261 115.97 108.884 125.496 103.507C135.319 98.1298 146.631 93.649 159.432 90.0643C172.232 86.181 186.075 84.2393 200.959 84.2393C219.416 84.2393 236.384 87.6746 251.863 94.5451C267.343 101.416 279.548 112.319 288.479 127.255C297.707 141.892 302.321 161.608 302.321 186.402V326.203H248.738V284.532L245.166 279.603V189.09Z" fill="#941F1A"/>
<path d="M381.333 319.482L398.301 269.745C403.957 272.135 410.655 274.375 418.394 276.466C426.134 278.258 434.916 279.155 444.74 279.155C458.433 279.155 470.936 276.765 482.248 271.985C493.56 267.206 502.788 259.439 509.933 248.685C517.077 237.931 520.65 223.593 520.65 205.669C520.65 182.369 514.696 164.894 502.788 153.244C491.179 141.594 475.997 135.769 457.242 135.769C449.205 135.769 441.465 136.814 434.023 138.905C426.879 140.996 420.627 143.535 415.269 146.523C409.91 149.211 405.445 151.9 401.873 154.588L398.301 114.709C403.659 109.332 409.91 104.403 417.055 99.9221C424.497 95.1426 432.981 91.4086 442.507 88.7201C452.033 85.7329 463.047 84.2393 475.55 84.2393C488.351 84.2393 500.854 86.4797 513.059 90.9605C525.561 95.4413 536.874 102.461 546.995 112.02C557.116 121.281 565.154 133.379 571.107 148.315C577.061 163.251 580.038 181.025 580.038 201.637C580.038 224.041 576.317 243.457 568.875 259.887C561.433 276.018 551.311 289.311 538.511 299.766C526.008 310.222 511.868 317.988 496.091 323.067C480.313 328.145 464.238 330.684 447.865 330.684C433.279 330.684 420.925 329.489 410.803 327.099C400.98 325.008 391.156 322.469 381.333 319.482ZM411.25 137.561V397H353.648V88.7201H407.678V131.288L411.25 137.561Z" fill="#941F1A"/>
<path d="M650.384 319.482L667.352 269.745C673.008 272.135 679.706 274.375 687.446 276.466C695.186 278.258 703.967 279.155 713.791 279.155C727.485 279.155 739.987 276.765 751.299 271.985C762.612 267.206 771.84 259.439 778.984 248.685C786.129 237.931 789.701 223.593 789.701 205.669C789.701 182.369 783.747 164.894 771.84 153.244C760.23 141.594 745.048 135.769 726.294 135.769C718.256 135.769 710.516 136.814 703.074 138.905C695.93 140.996 689.678 143.535 684.32 146.523C678.962 149.211 674.496 151.9 670.924 154.588L667.352 114.709C672.71 109.332 678.962 104.403 686.106 99.9221C693.548 95.1426 702.032 91.4086 711.558 88.7201C721.084 85.7329 732.099 84.2393 744.601 84.2393C757.402 84.2393 769.905 86.4797 782.11 90.9605C794.613 95.4413 805.925 102.461 816.046 112.02C826.168 121.281 834.205 133.379 840.159 148.315C846.113 163.251 849.089 181.025 849.089 201.637C849.089 224.041 845.368 243.457 837.926 259.887C830.484 276.018 820.363 289.311 807.562 299.766C795.059 310.222 780.919 317.988 765.142 323.067C749.365 328.145 733.289 330.684 716.917 330.684C702.33 330.684 689.976 329.489 679.855 327.099C670.031 325.008 660.207 322.469 650.384 319.482ZM680.301 137.561V397H622.699V88.7201H676.729V131.288L680.301 137.561Z" fill="#941F1A"/>
<path d="M893.537 88.7201H951.139V326.203H893.537V88.7201ZM922.561 61.3871C910.653 61.3871 901.127 58.6987 893.983 53.3217C886.839 47.646 883.266 40.0286 883.266 30.4695C883.266 20.9105 886.839 13.4424 893.983 8.06547C901.127 2.68849 910.653 0 922.561 0C934.766 0 944.292 2.68849 951.139 8.06547C958.283 13.4424 961.855 20.9105 961.855 30.4695C961.855 40.0286 958.283 47.646 951.139 53.3217C944.292 58.6987 934.766 61.3871 922.561 61.3871Z" fill="#941F1A"/>
<path d="M1054.22 192.675V212.839C1054.22 226.878 1056.9 238.678 1062.26 248.237C1067.62 257.796 1075.81 264.965 1086.82 269.745C1097.84 274.226 1111.83 276.466 1128.79 276.466C1139.81 276.466 1150.53 275.57 1160.94 273.778C1171.36 271.687 1180.89 269.147 1189.52 266.16C1198.16 263.173 1205.45 260.037 1211.4 256.751V307.384C1203.37 313.657 1191.01 319.183 1174.34 323.963C1157.67 328.444 1140.26 330.684 1122.1 330.684C1097.09 330.684 1075.06 325.904 1056.01 316.345C1037.26 306.786 1022.52 292.896 1011.8 274.674C1001.38 256.153 996.175 233.749 996.175 207.462C996.175 182.07 1000.94 160.264 1010.46 142.042C1019.99 123.521 1033.39 109.332 1050.65 99.474C1068.22 89.3175 1088.46 84.2393 1111.38 84.2393C1144.42 84.2393 1169.88 94.2464 1187.74 114.261C1205.9 134.275 1214.97 161.907 1214.97 197.156V224.041H1051.1V186.85H1158.71C1158.41 170.42 1154.25 157.426 1146.21 147.867C1138.17 138.009 1125.37 133.08 1107.81 133.08C1096.2 133.08 1086.37 135.619 1078.34 140.698C1070.6 145.477 1064.64 152.348 1060.48 161.309C1056.31 170.271 1054.22 180.726 1054.22 192.675Z" fill="#941F1A"/>
<path d="M1285.23 332.028C1275.11 332.028 1266.33 328.444 1258.88 321.274C1251.74 313.806 1248.17 304.994 1248.17 294.837C1248.17 284.382 1251.74 275.57 1258.88 268.401C1266.33 260.933 1275.11 257.199 1285.23 257.199C1295.65 257.199 1304.43 260.933 1311.58 268.401C1319.02 275.57 1322.74 284.382 1322.74 294.837C1322.74 304.994 1319.02 313.806 1311.58 321.274C1304.43 328.444 1295.65 332.028 1285.23 332.028Z" fill="#941F1A"/>
<path d="M1501.98 266.16L1506 295.286C1501.54 300.961 1495.58 306.637 1488.14 312.313C1480.7 317.69 1472.07 322.17 1462.24 325.755C1452.42 329.041 1441.41 330.684 1429.2 330.684C1405.39 330.684 1386.63 325.008 1372.94 313.657C1359.24 302.007 1352.4 285.726 1352.4 264.816C1352.4 250.179 1356.57 237.483 1364.9 226.729C1373.53 215.975 1385.14 207.611 1399.73 201.637C1414.32 195.662 1430.84 192.675 1449.29 192.675C1462.39 192.675 1473.56 193.87 1482.78 196.26C1492.01 198.649 1498.86 201.039 1503.32 203.429L1505.56 238.379C1500.79 236.288 1494.39 234.645 1486.36 233.45C1478.32 231.957 1470.28 231.21 1462.24 231.21C1444.38 231.21 1430.39 233.898 1420.27 239.275C1410.45 244.652 1405.53 252.12 1405.53 261.679C1405.53 270.641 1408.81 277.064 1415.36 280.947C1421.91 284.83 1430.09 286.772 1439.92 286.772C1451.53 286.772 1462.84 284.83 1473.85 280.947C1485.17 276.765 1494.54 271.836 1501.98 266.16ZM1498.41 189.09C1498.41 177.739 1496.03 168.628 1491.27 161.757C1486.8 154.887 1480.7 149.809 1472.96 146.523C1465.22 143.237 1456.44 141.594 1446.62 141.594C1429.05 141.594 1412.08 145.328 1395.71 152.796C1379.64 159.965 1366.54 168.628 1356.42 178.784V119.638C1361.77 114.261 1369.22 108.884 1378.74 103.507C1388.57 98.1298 1399.88 93.649 1412.68 90.0643C1425.48 86.181 1439.32 84.2393 1454.21 84.2393C1472.66 84.2393 1489.63 87.6746 1505.11 94.5451C1520.59 101.416 1532.8 112.319 1541.73 127.255C1550.95 141.892 1555.57 161.608 1555.57 186.402V326.203H1501.98V284.532L1498.41 279.603V189.09Z" fill="#941F1A"/>
<path d="M1608.68 88.7201H1666.28V326.203H1608.68V88.7201ZM1637.71 61.3871C1625.8 61.3871 1616.27 58.6987 1609.13 53.3217C1601.98 47.646 1598.41 40.0286 1598.41 30.4695C1598.41 20.9105 1601.98 13.4424 1609.13 8.06547C1616.27 2.68849 1625.8 0 1637.71 0C1649.91 0 1659.44 2.68849 1666.28 8.06547C1673.43 13.4424 1677 20.9105 1677 30.4695C1677 40.0286 1673.43 47.646 1666.28 53.3217C1659.44 58.6987 1649.91 61.3871 1637.71 61.3871Z" fill="#941F1A"/>
</svg>
