<svg width="273" height="89" viewBox="0 0 273 89" fill="none" xmlns="http://www.w3.org/2000/svg">
<path d="M-0.000390217 4.00005L12.8996 2.20005V72.8H-0.000390217V4.00005ZM55.7043 59.4L56.6043 65.9C55.6043 67.1667 54.271 68.4334 52.6043 69.7C50.9376 70.9 49.0043 71.9 46.8043 72.7C44.6043 73.4334 42.1376 73.8 39.4043 73.8C34.071 73.8 29.871 72.5334 26.8043 70C23.7376 67.4 22.2043 63.7667 22.2043 59.1C22.2043 55.8334 23.1376 53 25.0043 50.6C26.9376 48.2 29.5376 46.3334 32.8043 45C36.071 43.6667 39.771 43 43.9043 43C46.8376 43 49.3376 43.2667 51.4043 43.8C53.471 44.3334 55.0043 44.8667 56.0043 45.4L56.5043 53.2C55.4376 52.7334 54.0043 52.3667 52.2043 52.1C50.4043 51.7667 48.6043 51.6 46.8043 51.6C42.8043 51.6 39.671 52.2 37.4043 53.4C35.2043 54.6 34.1043 56.2667 34.1043 58.4C34.1043 60.4 34.8376 61.8334 36.3043 62.7C37.771 63.5667 39.6043 64 41.8043 64C44.4043 64 46.9376 63.5667 49.4043 62.7C51.9376 61.7667 54.0376 60.6667 55.7043 59.4ZM54.9043 42.2C54.9043 39.6667 54.371 37.6334 53.3043 36.1C52.3043 34.5667 50.9376 33.4334 49.2043 32.7C47.471 31.9667 45.5043 31.6 43.3043 31.6C39.371 31.6 35.571 32.4334 31.9043 34.1C28.3043 35.7 25.371 37.6334 23.1043 39.9V26.7C24.3043 25.5 25.971 24.3 28.1043 23.1C30.3043 21.9 32.8376 20.9 35.7043 20.1C38.571 19.2334 41.671 18.8 45.0043 18.8C49.1376 18.8 52.9376 19.5667 56.4043 21.1C59.871 22.6334 62.6043 25.0667 64.6043 28.4C66.671 31.6667 67.7043 36.0667 67.7043 41.6V72.8H55.7043V63.5L54.9043 62.4V42.2ZM85.3988 71.3L89.1988 60.2C90.4655 60.7334 91.9655 61.2334 93.6988 61.7C95.4322 62.1 97.3988 62.3 99.5988 62.3C102.665 62.3 105.465 61.7667 107.999 60.7C110.532 59.6334 112.599 57.9 114.199 55.5C115.799 53.1 116.599 49.9 116.599 45.9C116.599 40.7 115.265 36.8 112.599 34.2C109.999 31.6 106.599 30.3 102.399 30.3C100.599 30.3 98.8655 30.5334 97.1988 31C95.5988 31.4667 94.1988 32.0334 92.9988 32.7C91.7988 33.3 90.7988 33.9 89.9988 34.5L89.1988 25.6C90.3988 24.4 91.7988 23.3 93.3988 22.3C95.0655 21.2334 96.9655 20.4 99.0988 19.8C101.232 19.1334 103.699 18.8 106.499 18.8C109.365 18.8 112.165 19.3 114.899 20.3C117.699 21.3 120.232 22.8667 122.499 25C124.765 27.0667 126.565 29.7667 127.899 33.1C129.232 36.4334 129.899 40.4 129.899 45C129.899 50 129.065 54.3334 127.399 58C125.732 61.6 123.465 64.5667 120.599 66.9C117.799 69.2334 114.632 70.9667 111.099 72.1C107.565 73.2334 103.965 73.8 100.299 73.8C97.0322 73.8 94.2655 73.5334 91.9988 73C89.7988 72.5334 87.5988 71.9667 85.3988 71.3ZM92.0988 30.7V88.6H79.1988V19.8H91.2988V29.3L92.0988 30.7ZM145.653 71.3L149.453 60.2C150.719 60.7334 152.219 61.2334 153.953 61.7C155.686 62.1 157.653 62.3 159.853 62.3C162.919 62.3 165.719 61.7667 168.253 60.7C170.786 59.6334 172.853 57.9 174.453 55.5C176.053 53.1 176.853 49.9 176.853 45.9C176.853 40.7 175.519 36.8 172.853 34.2C170.253 31.6 166.853 30.3 162.653 30.3C160.853 30.3 159.119 30.5334 157.453 31C155.853 31.4667 154.453 32.0334 153.253 32.7C152.053 33.3 151.053 33.9 150.253 34.5L149.453 25.6C150.653 24.4 152.053 23.3 153.653 22.3C155.319 21.2334 157.219 20.4 159.353 19.8C161.486 19.1334 163.953 18.8 166.753 18.8C169.619 18.8 172.419 19.3 175.153 20.3C177.953 21.3 180.486 22.8667 182.753 25C185.019 27.0667 186.819 29.7667 188.153 33.1C189.486 36.4334 190.153 40.4 190.153 45C190.153 50 189.319 54.3334 187.653 58C185.986 61.6 183.719 64.5667 180.853 66.9C178.053 69.2334 174.886 70.9667 171.353 72.1C167.819 73.2334 164.219 73.8 160.553 73.8C157.286 73.8 154.519 73.5334 152.253 73C150.053 72.5334 147.853 71.9667 145.653 71.3ZM152.353 30.7V88.6H139.453V19.8H151.553V29.3L152.353 30.7ZM200.107 19.8H213.007V72.8H200.107V19.8ZM206.607 13.7C203.94 13.7 201.807 13.1 200.207 11.9C198.607 10.6334 197.807 8.93338 197.807 6.80005C197.807 4.66671 198.607 3.00005 200.207 1.80005C201.807 0.600045 203.94 4.43459e-05 206.607 4.43459e-05C209.34 4.43459e-05 211.473 0.600045 213.007 1.80005C214.607 3.00005 215.407 4.66671 215.407 6.80005C215.407 8.93338 214.607 10.6334 213.007 11.9C211.473 13.1 209.34 13.7 206.607 13.7ZM236.093 43V47.5C236.093 50.6334 236.693 53.2667 237.893 55.4C239.093 57.5334 240.926 59.1334 243.393 60.2C245.859 61.2 248.993 61.7 252.793 61.7C255.259 61.7 257.659 61.5 259.993 61.1C262.326 60.6334 264.459 60.0667 266.393 59.4C268.326 58.7334 269.959 58.0334 271.293 57.3V68.6C269.493 70 266.726 71.2334 262.993 72.3C259.259 73.3 255.359 73.8 251.293 73.8C245.693 73.8 240.759 72.7334 236.493 70.6C232.293 68.4667 228.993 65.3667 226.593 61.3C224.259 57.1667 223.093 52.1667 223.093 46.3C223.093 40.6334 224.159 35.7667 226.293 31.7C228.426 27.5667 231.426 24.4 235.293 22.2C239.226 19.9334 243.759 18.8 248.893 18.8C256.293 18.8 261.993 21.0334 265.993 25.5C270.059 29.9667 272.093 36.1334 272.093 44V50H235.393V41.7H259.493C259.426 38.0334 258.493 35.1334 256.693 33C254.893 30.8 252.026 29.7 248.093 29.7C245.493 29.7 243.293 30.2667 241.493 31.4C239.759 32.4667 238.426 34 237.493 36C236.559 38 236.093 40.3334 236.093 43Z" fill="#C8372D"/>
</svg>
